<svg width="20" height="22" viewBox="0 0 20 22" fill="none" xmlns="http://www.w3.org/2000/svg">
<path fill-rule="evenodd" clip-rule="evenodd" d="M5.8885 2.44101L4.6073 0.905212L0 4.74881L1.2811 6.28461L5.8885 2.44101ZM15.2805 0.905812L19.8879 4.74941L18.6067 6.28521L13.9993 2.44161L15.2805 0.905812ZM8.484 13.6248L6.354 11.4948L5.294 12.5548L8.474 15.7348L14.474 9.73481L13.414 8.67481L8.484 13.6248ZM9.944 3.09481C4.974 3.09481 0.944 7.12481 0.944 12.0948C0.944 17.0648 4.974 21.0948 9.944 21.0948C14.914 21.0948 18.944 17.0648 18.944 12.0948C18.944 7.12481 14.914 3.09481 9.944 3.09481ZM2.944 12.0948C2.944 15.9548 6.084 19.0948 9.944 19.0948C13.804 19.0948 16.944 15.9548 16.944 12.0948C16.944 8.23481 13.804 5.09481 9.944 5.09481C6.084 5.09481 2.944 8.23481 2.944 12.0948Z" fill="#0E0F11"/>
</svg>
