<svg width="19" height="20" viewBox="0 0 19 20" fill="none" xmlns="http://www.w3.org/2000/svg">
<path fill-rule="evenodd" clip-rule="evenodd" d="M5.29 0.505005H7.29V4.385L5.29 2.385V0.505005ZM13.29 10.385V6.505H9.41L7.41 4.505H11.29V0.505005H13.29V4.505C14.39 4.505 15.29 5.405 15.29 6.505V11.985L15.09 12.185L13.29 10.385ZM1.41 1.345L0 2.755L3.29 6.045V12.005L6.79 15.505V18.505H11.79V15.505L12.27 15.025L16.74 19.495L18.15 18.085L1.41 1.345ZM9.79 16.505V14.675L10.86 13.615L5.29 8.045V11.155L8.79 14.675V16.505H9.79Z" fill="#0E0F11"/>
</svg>
